<svg width="0" height="0" class="hidden">
  <symbol xmlns="http://www.w3.org/2000/svg" viewBox="0 0 20 20" id="icon-facebook">
    <path d="M18.896 0H1.104C.494 0 0 .494 0 1.104v17.793C0 19.506.494 20 1.104 20h9.58v-7.745H8.076V9.237h2.606V7.01c0-2.583 1.578-3.99 3.883-3.99 1.104 0 2.052.082 2.329.119v2.7h-1.598c-1.254 0-1.496.597-1.496 1.47v1.928h2.989l-.39 3.018h-2.6V20h5.098c.608 0 1.102-.494 1.102-1.104V1.104C20 .494 19.506 0 18.896 0z"></path>
  </symbol>
  <symbol xmlns="http://www.w3.org/2000/svg" viewBox="0 0 21 20" id="icon-instagram">
    <path d="M10.333 1.802c2.67 0 2.987.01 4.042.059 2.71.123 3.976 1.409 4.1 4.099.048 1.054.057 1.37.057 4.04 0 2.672-.01 2.988-.058 4.042-.124 2.687-1.386 3.975-4.099 4.099-1.055.048-1.37.058-4.042.058-2.67 0-2.986-.01-4.04-.058-2.717-.124-3.976-1.416-4.1-4.1-.048-1.054-.058-1.37-.058-4.041 0-2.67.01-2.986.058-4.04.124-2.69 1.387-3.977 4.1-4.1 1.054-.048 1.37-.058 4.04-.058zm0-1.802C7.618 0 7.278.012 6.211.06 2.579.227.56 2.242.394 5.877.345 6.944.334 7.284.334 10s.011 3.057.06 4.123c.166 3.632 2.181 5.65 5.816 5.817 1.068.048 1.408.06 4.123.06 2.716 0 3.057-.012 4.124-.06 3.628-.167 5.651-2.182 5.816-5.817.049-1.066.06-1.407.06-4.123s-.011-3.056-.06-4.122C20.11 2.249 18.093.228 14.458.06 13.39.01 13.049 0 10.333 0zm0 4.865a5.135 5.135 0 100 10.27 5.135 5.135 0 000-10.27zm0 8.468a3.333 3.333 0 110-6.666 3.333 3.333 0 010 6.666zm5.339-9.87a1.2 1.2 0 10-.001 2.4 1.2 1.2 0 000-2.4z"></path>
  </symbol>
  <symbol xmlns="http://www.w3.org/2000/svg" viewBox="0 0 21 20" id="icon-youtube">
    <path d="M10.333 0c-5.522 0-10 4.478-10 10 0 5.523 4.478 10 10 10 5.523 0 10-4.477 10-10 0-5.522-4.477-10-10-10zm3.701 14.077c-1.752.12-5.653.12-7.402 0C4.735 13.947 4.514 13.018 4.5 10c.014-3.024.237-3.947 2.132-4.077 1.749-.12 5.651-.12 7.402 0 1.898.13 2.118 1.059 2.133 4.077-.015 3.024-.238 3.947-2.133 4.077zM8.667 8.048l4.097 1.949-4.097 1.955V8.048z"></path>
  </symbol>
  <symbol xmlns="http://www.w3.org/2000/svg" viewBox="0 0 21 18" id="icon-twitter">
    <path d="M20.667 2.797a8.192 8.192 0 01-2.357.646 4.11 4.11 0 001.804-2.27 8.22 8.22 0 01-2.606.996A4.096 4.096 0 0014.513.873c-2.649 0-4.595 2.472-3.997 5.038a11.648 11.648 0 01-8.457-4.287 4.109 4.109 0 001.27 5.478A4.086 4.086 0 011.47 6.59c-.045 1.901 1.317 3.68 3.29 4.075a4.113 4.113 0 01-1.853.07 4.106 4.106 0 003.834 2.85 8.25 8.25 0 01-6.075 1.7 11.616 11.616 0 006.29 1.843c7.618 0 11.922-6.434 11.662-12.205a8.354 8.354 0 002.048-2.124z"></path>
  </symbol>
  <symbol xmlns="http://www.w3.org/2000/svg" viewBox="0 0 20 20" id="icon-pinterest">
    <path d="M10 0C4.478 0 0 4.477 0 10c0 4.237 2.636 7.855 6.356 9.312-.088-.791-.167-2.005.035-2.868.182-.78 1.172-4.97 1.172-4.97s-.299-.6-.299-1.486c0-1.39.806-2.428 1.81-2.428.852 0 1.264.64 1.264 1.408 0 .858-.545 2.14-.828 3.33-.236.995.5 1.807 1.48 1.807 1.778 0 3.144-1.874 3.144-4.58 0-2.393-1.72-4.068-4.177-4.068-2.845 0-4.515 2.135-4.515 4.34 0 .859.331 1.781.745 2.281a.3.3 0 01.069.288l-.278 1.133c-.044.183-.145.223-.335.134-1.249-.581-2.03-2.407-2.03-3.874 0-3.154 2.292-6.052 6.608-6.052 3.469 0 6.165 2.473 6.165 5.776 0 3.447-2.173 6.22-5.19 6.22-1.013 0-1.965-.525-2.291-1.148l-.623 2.378c-.226.869-.835 1.958-1.244 2.621.937.29 1.931.446 2.962.446 5.522 0 10-4.477 10-10S15.522 0 10 0z"></path>
  </symbol>
  <symbol version="1.2" xmlns="http://www.w3.org/2000/svg" viewBox="0 0 1020 757" id="icon-grabfood">
    <g id="Layer 1">
      <g id="&amp;lt;Group&amp;gt;">
        <path id="&amp;lt;Compound Path&amp;gt;" fill-rule="evenodd" d="m173.02 24.16c41 0 74.79 9.47 100.47 27.94v26.58c-26.58-18.47-61.72-27.93-100.47-27.93-81.55 0-144.63 62.62-144.63 141.92 0 81.55 59.92 143.28 140.57 143.28 73.44 0 117.15-43.7 117.15-113.99v-24.33h-113.99v-26.13h139.22v45.95c0 89.66-54.07 145.08-142.38 145.08-96.87 0-168.96-72.54-168.96-169.86 0-94.16 75.25-168.51 173.02-168.51zm0 40.1c43.25 0 79.3 14.42 100.47 29.29v25.23l-1.8 1.35c-28.38-19.82-59.02-29.28-97.77-29.28-59.47 0-102.73 43.7-102.73 101.82 0 60.38 40.1 103.18 97.77 103.18 52.27 0 76.6-31.09 76.15-57.67h-72.99v-27.03h100.47v17.57c0 49.11-34.69 93.71-103.63 93.71-71.64 0-127.05-56.32-127.05-129.76 0-71.64 57.67-128.41 131.11-128.41zm156.34 151.84c0-70.74 45.06-118.5 115.8-118.5 24.33 0 46.85 6.76 63.53 18.48-7.21 5.85-12.62 12.16-17.58 18.02-8.11-4.96-26.58-10.81-44.6-10.81-53.62 0-90.56 37.39-90.56 92.36v139.22h-26.59zm116.7-80.2c13.51 0 27.48 4.06 36.94 10.37-4.5 6.76-8.11 13.96-11.71 22.53-8.56-3.61-16.67-5.86-25.68-5.86-30.19 0-50.47 22.08-50.47 53.16v138.78h-26.58v-139.23c0-46.85 31.99-79.75 77.5-79.75zm445.15-40.55c73.89 0 127.96 57.23 127.96 133.37 0 75.24-53.62 133.82-126.61 133.82-56.77 0-100.47-33.8-115.34-76.6l18.92-25.68c9.46 43.7 50.01 75.69 96.87 75.69 57.67 0 99.58-46.4 99.58-107.23 0-62.18-42.81-106.33-101.38-106.33-43.25 0-71.19 21.62-103.18 60.82-12.61 15.32-26.13 33.8-41.9 54.97v-39.2c33.34-46.4 68.48-103.63 145.08-103.63zm-62.63 127.51c0 38.75 26.59 73.44 64.43 73.44 36.05 0 59.93-28.83 59.93-68.03 0-37.85-25.23-66.23-62.18-66.23-37.85 0-55.87 27.03-85.61 62.62-17.57 21.18-41.45 51.82-59.02 77.95v-43.25c18.92-26.59 36.04-47.76 45.96-60.83 20.27-27.03 49.11-63.53 99.12-63.53 51.36 0 88.76 39.65 88.76 93.27 0 53.62-36.5 94.62-86.96 94.62-49.56 0-82.45-43.26-86.05-75.7l20.72-28.38h0.9zm0-222.13v94.62c-9.46 3.6-18.47 11.26-26.58 17.57v-112.19zm-66.23 0h26.58v122.1c-9.46 9.46-18.47 20.73-26.58 31.09zm-156.35 94.17c74.8 0 127.51 54.97 127.51 129.76v130.21h-27.03v-129.76c0-59.92-42.35-102.73-100.48-102.73-58.57 0-102.72 45.51-102.72 106.33 0 63.98 41.45 107.24 102.72 107.24 20.28 0 40.1-7.66 48.21-14.42v26.58c-12.16 9.46-31.54 14.42-48.21 14.42-74.79 0-130.21-55.42-130.21-133.82 0-75.69 56.77-133.81 130.21-133.81zm48.21 214.01c-9.01 6.31-28.83 13.52-48.21 13.97-51.36 1.35-90.11-38.3-90.11-93.71 0-55.87 39.2-94.17 90.11-94.17 51.37 0 87.86 38.3 87.86 90.56v129.31h-26.58v-127.96c0-37.39-23.43-65.33-61.73-65.33-35.59 0-62.17 29.29-62.17 67.59 0 40.1 27.03 67.13 63.07 67.13 17.58 0 36.05-5.41 47.31-14.42l0.45 0.45z"></path>
        <g id="&amp;lt;Group&amp;gt;">
          <path id="&amp;lt;Compound Path&amp;gt;" d="m66.24 486.87v95.14h126.13v46.5h-126.13v121.83h-50.37v-309.97h191.13v46.5z"></path>
          <path id="&amp;lt;Compound Path&amp;gt;" fill-rule="evenodd" d="m463.98 631.08c0 75.35-49.08 125.71-120.97 125.71-71.9 0-121.4-50.36-121.4-125.71 0-75.33 49.5-126.13 121.4-126.13 71.89 0 120.97 50.8 120.97 126.13zm-120.97-79.2c-41.33 0-71.9 32.72-71.9 79.2 0 46.5 30.57 78.79 71.9 78.79 41.33 0 71.46-32.29 71.46-78.79 0-46.48-30.13-79.2-71.46-79.2z"></path>
          <path id="&amp;lt;Compound Path&amp;gt;" fill-rule="evenodd" d="m733.86 631.08c0 75.35-49.08 125.71-120.97 125.71-71.9 0-121.4-50.36-121.4-125.71 0-75.33 49.5-126.13 121.4-126.13 71.89 0 120.97 50.8 120.97 126.13zm-120.97-79.2c-41.33 0-71.9 32.72-71.9 79.2 0 46.5 30.57 78.79 71.9 78.79 41.33 0 71.46-32.29 71.46-78.79 0-46.48-30.13-79.2-71.46-79.2z"></path>
          <path id="&amp;lt;Compound Path&amp;gt;" fill-rule="evenodd" d="m875.02 504.95c36.16 0 63.71 13.78 76.62 41.33h2.15v-131.73h49.51v214.38c0 76.2-48.64 127.86-120.54 127.86-71.46 0-121.4-51.22-121.4-126.13 0-73.61 46.5-125.71 113.66-125.71zm7.74 204.92c41.33 0 71.03-33.58 71.03-81.79 0-49.95-32.28-76.2-71.89-76.2-41.33 0-71.03 29.27-71.03 77.05 0 49.51 32.29 80.94 71.89 80.94z"></path>
        </g>
      </g>
    </g>
  </symbol>
</svg>